<svg version="1.1" id="Capa_1" xmlns="http://www.w3.org/2000/svg" xmlns:xlink="http://www.w3.org/1999/xlink" viewBox="0 0 17.611 17.611" xml:space="preserve" fill="#B0C4DE"><g id="SVGRepo_bgCarrier" stroke-width="0"></g><g id="SVGRepo_tracerCarrier" stroke-linecap="round" stroke-linejoin="round"></g><g id="SVGRepo_iconCarrier"> <g> <g> <path style="fill:#B0C4DE;" d="M5.825,3.608H10.8l1.002-1.045c0,0-4.599,0-5.354,0c-0.757,0-0.631,0.546-0.631,0.546L5.825,3.608z "></path> <path style="fill:#B0C4DE;" d="M12.485,10.847c0,0.054-0.012,0.103-0.016,0.154h0.269c0.233-0.201,0.454-0.418,0.658-0.633 c0.067-0.072,0.136-0.143,0.204-0.211h-1.115V10.847z"></path> <path style="fill:#B0C4DE;" d="M6.441,4.89h5.288c0.12,0,0.236-0.052,0.315-0.143l1.24-1.403h2.571v5.985 c0.306,0.079,0.588,0.22,0.844,0.4V2.923c0-0.233-0.188-0.422-0.422-0.422h-3.183c-0.121,0-0.235,0.051-0.315,0.141l-1.241,1.405 h-5.52c-0.233,0-0.422,0.189-0.422,0.422v3.358h0.845C6.441,7.827,6.441,4.89,6.441,4.89z"></path> <rect x="0" y="8.49" style="fill:#B0C4DE;" width="2.303" height="5.129"></rect> <path style="fill:#B0C4DE;" d="M15.636,9.98c-1.012,0.186-2.668,4.838-8.001,0.789h3.21c0,0,0.741,0.051,0.741-0.543 c0-0.592,0-0.95,0-0.95s-0.148-0.74-0.741-0.74s-7.457,0-7.457,0v4.991c0,0,5.037,1.58,6.814,1.58c0,0,4.446,0.197,7.409-3.259 C17.612,11.848,16.648,9.795,15.636,9.98z"></path> </g> </g> </g></svg>